<svg version="1.1" xmlns="http://www.w3.org/2000/svg" xmlns:xlink="http://www.w3.org/1999/xlink" x="0px" y="0px" viewBox="0 0 223.985 23.346" style="enable-background:new 0 0 223.985 23.346;" xml:space="preserve">
<g id="Layer_2">
</g>
                                    <g id="Layer_1">
                                        <g>
                                            <g>
                                                <path style="fill:#FFCA2C;" d="M8.367,17.351c-0.285-0.061-0.56-0.254-0.823-0.579c-0.265-0.324-0.377-0.629-0.335-0.914
				c0.04-0.529,0.127-1.037,0.259-1.525c0.133-0.488,0.249-0.995,0.351-1.524l3.842-12.714H4.86C4.168,2.33,3.579,4.235,3.092,5.81
				c-0.488,1.575-0.89,2.897-1.205,3.963c-0.316,1.068-0.559,1.916-0.732,2.547c-0.173,0.63-0.31,1.123-0.412,1.479
				c-0.102,0.356-0.173,0.614-0.213,0.777c-0.041,0.163-0.072,0.305-0.092,0.428c-0.61,2.317-0.584,4.141,0.077,5.473
				c0.66,1.331,1.885,2.109,3.674,2.332c2.093,0.305,4.177,0.427,6.25,0.366c2.073-0.061,4.238-0.285,6.494-0.671l1.616-5.641
				c-1.688,0.346-3.374,0.579-5.062,0.701C11.801,17.686,10.095,17.615,8.367,17.351z"></path>
                                                <path style="fill:#FFCA2C;" d="M95.045,3.478c-0.224-0.569-0.539-1.067-0.944-1.495c-0.692-0.711-1.489-1.203-2.393-1.479
				c-0.905-0.274-1.845-0.411-2.821-0.411H76.446L69.769,22.87L85.35,22.84c0.65,0,1.275-0.118,1.875-0.352
				c0.599-0.233,1.163-0.549,1.693-0.945c0.527-0.396,1.016-0.854,1.463-1.372c0.447-0.519,0.854-1.052,1.22-1.601
				c0.222-0.326,0.466-0.828,0.731-1.509c0.263-0.68,0.538-1.448,0.823-2.303c0.284-0.853,0.558-1.757,0.822-2.713
				c0.265-0.956,0.503-1.87,0.717-2.744c0.213-0.874,0.382-1.667,0.503-2.378c0.122-0.711,0.182-1.27,0.182-1.677
				C95.38,4.637,95.268,4.047,95.045,3.478z M88.81,7.579c-0.133,0.539-0.3,1.153-0.503,1.845c-0.203,0.691-0.427,1.419-0.671,2.18
				c-0.245,0.762-0.489,1.484-0.732,2.165c-0.244,0.682-0.468,1.28-0.671,1.798c-0.203,0.519-0.356,0.869-0.458,1.052
				c-0.182,0.306-0.36,0.559-0.532,0.762c-0.173,0.204-0.387,0.366-0.642,0.488c-0.254,0.122-0.569,0.209-0.944,0.26
				c-0.377,0.051-0.839,0.077-1.387,0.077h-4.361L81.935,4.21h5.213c0.285,0,0.539,0.066,0.762,0.199
				c0.223,0.132,0.417,0.305,0.58,0.519c0.162,0.212,0.289,0.451,0.381,0.716c0.091,0.264,0.137,0.518,0.137,0.762
				C89.008,6.649,88.941,7.041,88.81,7.579z"></path>
                                                <path style="fill:#FFCA2C;" d="M105.138,17.381c-0.285-0.04-0.539-0.193-0.763-0.457c-0.224-0.264-0.315-0.538-0.274-0.823
				c0.06-0.467,0.163-0.935,0.305-1.403c0.142-0.467,0.263-0.934,0.365-1.402h8.598l1.342-4.36c-1.749,0-3.146-0.005-4.193-0.016
				c-1.047-0.01-1.865-0.015-2.454-0.015c-0.569,0-0.982,0.005-1.236,0.015c-0.255,0.011-0.472,0.026-0.654,0.046
				c0.182-0.264,0.344-0.595,0.487-0.991c0.142-0.396,0.31-0.778,0.502-1.144c0.193-0.366,0.427-0.68,0.702-0.945
				c0.275-0.264,0.625-0.396,1.052-0.396h9.695l1.647-5.458h-13.111c-1.442,0-2.759,0.194-3.948,0.579
				c-1.189,0.386-2.271,0.93-3.247,1.631c-0.975,0.701-1.855,1.54-2.637,2.516c-0.783,0.975-1.479,2.053-2.088,3.231
				c-0.061,0.122-0.03,0.209,0.092,0.26c0.122,0.051,0.234,0.045,0.335-0.016c0.04,0,0.092-0.031,0.152-0.092
				c0.365-0.385,0.727-0.675,1.082-0.868c0.356-0.194,0.702-0.34,1.037-0.442c0.335-0.102,0.659-0.183,0.975-0.244
				c0.315-0.061,0.614-0.142,0.899-0.244c-0.63,1.423-1.174,2.881-1.631,4.375c-0.457,1.494-0.828,3.014-1.113,4.558
				c-0.143,0.773-0.188,1.596-0.137,2.469c0.049,0.875,0.229,1.688,0.532,2.439c0.305,0.752,0.757,1.392,1.357,1.921
				c0.599,0.529,1.377,0.843,2.332,0.945c4.269,0.467,8.517,0.376,12.746-0.274l1.616-5.641c-1.688,0.326-3.405,0.514-5.153,0.564
				C108.603,17.753,106.865,17.646,105.138,17.381z"></path>
                                                <path style="fill:#FFCA2C;" d="M140.109,1.374c-0.611-0.427-1.301-0.741-2.073-0.945c-0.773-0.203-1.546-0.305-2.318-0.305
				h-11.495l-6.86,22.715h6.586l1.951-6.464h4.208l2.195,6.464h6.404l-2.318-7.073c0.772-0.407,1.479-0.94,2.119-1.601
				c0.641-0.661,1.194-1.357,1.661-2.088c0.672-1.017,1.174-2.104,1.509-3.262c0.335-1.159,0.503-2.337,0.503-3.538
				c0-0.873-0.193-1.635-0.579-2.286C141.216,2.34,140.719,1.801,140.109,1.374z M135.276,8.448c-0.255,0.631-0.615,1.2-1.082,1.708
				c-0.183,0.203-0.362,0.401-0.534,0.595c-0.173,0.193-0.386,0.361-0.64,0.502c-0.255,0.144-0.569,0.255-0.945,0.335
				c-0.376,0.082-0.849,0.122-1.418,0.122h-3.354l2.257-7.47h4.207c0.285,0,0.544,0.066,0.777,0.198
				c0.233,0.132,0.432,0.305,0.595,0.518c0.162,0.213,0.289,0.452,0.38,0.717c0.091,0.264,0.137,0.519,0.137,0.762
				C135.656,7.148,135.53,7.818,135.276,8.448z"></path>
                                                <path style="fill:#FFFFFF;" d="M176.39,0.886c-0.182-0.142-0.442-0.259-0.777-0.351c-0.335-0.092-0.721-0.167-1.159-0.228
				c-0.437-0.061-0.904-0.107-1.403-0.138c-0.498-0.03-1.001-0.055-1.509-0.076l0.031-0.061l-6.098-0.03
				c-1.769-0.021-3.232,0.087-4.391,0.32c-1.159,0.234-2.146,0.62-2.958,1.159c-0.813,0.539-1.529,1.25-2.15,2.134
				c-0.62,0.885-1.265,1.967-1.936,3.248c-0.04,0.143,0.015,0.234,0.168,0.274c0.152,0.041,0.279-0.01,0.381-0.152
				c0.386-0.467,0.874-0.874,1.464-1.219c0.589-0.346,1.269-0.63,2.043-0.854l-5.519,17.928h11.922c1.099,0,2.043-0.046,2.837-0.138
				c0.792-0.091,1.453-0.217,1.981-0.381c1.26-0.406,2.348-1.087,3.262-2.043c0.915-0.955,1.576-2.114,1.981-3.476
				c0.834-2.541,0.203-4.309-1.89-5.306c0.569-0.203,1.129-0.493,1.677-0.868c0.549-0.377,1.051-0.803,1.509-1.281
				c0.457-0.477,0.858-0.995,1.204-1.554c0.345-0.559,0.609-1.133,0.792-1.723c0.345-1.098,0.371-2.099,0.077-3.004
				C177.636,2.163,177.122,1.435,176.39,0.886z M168.495,16.01c-0.123,0.427-0.347,0.839-0.672,1.235
				c-0.325,0.396-0.701,0.727-1.129,0.991c-0.182,0.101-0.365,0.188-0.548,0.26c-0.183,0.071-0.377,0.127-0.58,0.168
				c-0.204,0.04-0.442,0.07-0.717,0.091c-0.274,0.021-0.594,0.03-0.96,0.03h-3.354l1.585-5.275h3.477
				c0.711,0,1.234,0.035,1.57,0.107c0.335,0.071,0.635,0.198,0.899,0.38C168.657,14.425,168.799,15.096,168.495,16.01z
				 M171.329,6.68c-0.142,0.427-0.376,0.839-0.701,1.235c-0.325,0.396-0.702,0.727-1.128,0.991
				c-0.367,0.223-0.732,0.371-1.099,0.441c-0.365,0.072-0.914,0.107-1.646,0.107h-3.384l1.555-5.092h5.336v-0.03
				c0.203,0.041,0.406,0.152,0.609,0.335C171.462,5.094,171.614,5.765,171.329,6.68z"></path>
                                                <path style="fill:#FFFFFF;" d="M188.16,17.381c-0.285-0.04-0.539-0.193-0.763-0.457c-0.223-0.264-0.315-0.538-0.273-0.823
				c0.06-0.467,0.163-0.935,0.305-1.403c0.142-0.467,0.263-0.934,0.366-1.402h8.597l1.342-4.36c-1.748,0-3.145-0.005-4.193-0.016
				c-1.046-0.01-1.864-0.015-2.453-0.015c-0.569,0-0.982,0.005-1.236,0.015c-0.254,0.011-0.472,0.026-0.654,0.046
				c0.182-0.264,0.344-0.595,0.487-0.991c0.143-0.396,0.311-0.778,0.503-1.144c0.193-0.366,0.427-0.68,0.702-0.945
				c0.274-0.264,0.624-0.396,1.052-0.396h9.694l1.647-5.458h-13.111c-1.442,0-2.759,0.194-3.948,0.579
				c-1.189,0.386-2.271,0.93-3.248,1.631c-0.975,0.701-1.854,1.54-2.637,2.516c-0.783,0.975-1.479,2.053-2.088,3.231
				c-0.061,0.122-0.029,0.209,0.092,0.26c0.122,0.051,0.234,0.045,0.335-0.016c0.04,0,0.092-0.031,0.152-0.092
				c0.365-0.385,0.727-0.675,1.083-0.868c0.355-0.194,0.702-0.34,1.036-0.442c0.336-0.102,0.66-0.183,0.975-0.244
				c0.316-0.061,0.615-0.142,0.9-0.244c-0.63,1.423-1.174,2.881-1.631,4.375c-0.456,1.494-0.828,3.014-1.113,4.558
				c-0.143,0.773-0.188,1.596-0.136,2.469c0.049,0.875,0.228,1.688,0.532,2.439c0.306,0.752,0.757,1.392,1.358,1.921
				c0.598,0.529,1.376,0.843,2.331,0.945c4.269,0.467,8.517,0.376,12.746-0.274l1.616-5.641c-1.688,0.326-3.406,0.514-5.154,0.564
				C191.625,17.753,189.888,17.646,188.16,17.381z"></path>
                                                <path style="fill:#FFFFFF;" d="M212.276,0.094V0.033c-1.768-0.021-3.247,0.143-4.436,0.487c-1.19,0.347-2.216,0.86-3.08,1.541
				c-0.863,0.681-1.62,1.52-2.271,2.515c-0.651,0.996-1.312,2.135-1.982,3.415c-0.041,0.143,0.016,0.234,0.169,0.274
				c0.151,0.041,0.279,0,0.379-0.122c0.326-0.406,0.671-0.782,1.038-1.128c0.366-0.345,0.857-0.64,1.477-0.884
				c0.621-0.244,1.424-0.422,2.409-0.534c0.987-0.111,2.271-0.148,3.858-0.106l-5.306,17.348h6.89l5.245-17.348h5.671l1.646-5.397
				H212.276z"></path>
                                                <rect x="144.637" y="11.436" style="fill:#FFFFFF;" width="5.956" height="3.683"></rect>
                                                <path style="fill:#FFCA2C;" d="M31.093,17.381c-0.285-0.04-0.539-0.193-0.763-0.457c-0.223-0.264-0.315-0.538-0.273-0.823
				c0.06-0.467,0.163-0.935,0.305-1.403c0.142-0.467,0.263-0.934,0.366-1.402h8.597l1.342-4.36c-1.748,0-3.145-0.005-4.193-0.016
				c-1.046-0.01-1.864-0.015-2.453-0.015c-0.569,0-0.982,0.005-1.236,0.015c-0.254,0.011-0.472,0.026-0.654,0.046
				c0.182-0.264,0.344-0.595,0.487-0.991c0.143-0.396,0.311-0.778,0.503-1.144c0.193-0.366,0.427-0.68,0.702-0.945
				c0.274-0.264,0.624-0.396,1.052-0.396h9.694l1.647-5.458H33.105c-1.442,0-2.759,0.194-3.948,0.579
				c-1.189,0.386-2.271,0.93-3.248,1.631c-0.975,0.701-1.854,1.54-2.637,2.516c-0.783,0.975-1.479,2.053-2.088,3.231
				c-0.061,0.122-0.029,0.209,0.092,0.26c0.122,0.051,0.234,0.045,0.335-0.016c0.04,0,0.092-0.031,0.152-0.092
				c0.365-0.385,0.727-0.675,1.083-0.868c0.355-0.194,0.702-0.34,1.036-0.442c0.336-0.102,0.66-0.183,0.975-0.244
				c0.316-0.061,0.615-0.142,0.9-0.244c-0.63,1.423-1.174,2.881-1.631,4.375c-0.456,1.494-0.828,3.014-1.113,4.558
				c-0.143,0.773-0.188,1.596-0.136,2.469c0.049,0.875,0.228,1.688,0.532,2.439c0.306,0.752,0.757,1.392,1.358,1.921
				c0.598,0.529,1.376,0.843,2.331,0.945c4.269,0.467,8.517,0.376,12.746-0.274l1.616-5.641c-1.688,0.326-3.406,0.514-5.154,0.564
				C34.559,17.753,32.821,17.646,31.093,17.381z"></path>
                                                <path style="fill:#FFCA2C;" d="M56.263,0.154c-0.533,0.017-1.244,0.533-1.537,1.02C50.45,8.279,46.232,15.304,41.743,22.87
				c1.347,0,3.553-0.001,6.982-0.001c0,0,1.237-1.717,2.455-3.582c0.509-0.779,0.861-1.206,1.338-1.227
				c2.688-0.119,5.384-0.057,8.001-0.057c0.22,1.827,0.4,3.32,0.581,4.829c2.511,0,4.895,0,7.507,0
				c-1.055-7.634-2.084-15.088-3.14-22.726C62.292,0.107,59.275,0.057,56.263,0.154z M59.61,12.865c-1.399,0-3.006,0-4.999,0
				c1.522-2.769,2.985-5.432,4.448-8.096c0.183,0.048,0.367,0.096,0.55,0.145C59.61,7.495,59.61,10.076,59.61,12.865z"></path>
                                            </g>
                                        </g>
                                    </g>
</svg>